<mxfile host="app.diagrams.net" modified="2024-01-25T13:14:51.279Z" agent="Mozilla/5.0 (Windows NT 10.0; Win64; x64) AppleWebKit/537.36 (KHTML, like Gecko) Chrome/120.0.0.0 Safari/537.36 Edg/120.0.0.0" version="22.1.19" etag="9j2zGsmTY31TGEUOgNBA" type="github">
  <diagram name="Page-1" id="tS_Gh9oBk4e6LvSM4pCx">
    <mxGraphModel>
      <root>
        <mxCell id="0" />
        <mxCell id="1" parent="0" />
      </root>
    </mxGraphModel>
  </diagram>
</mxfile>
